<svg width="52" height="52" viewBox="0 0 52 52" fill="none" xmlns="http://www.w3.org/2000/svg">
<rect width="52" height="52" rx="26" fill="#FB5650"/>
<mask id="mask0_2038_35323" style="mask-type:alpha" maskUnits="userSpaceOnUse" x="14" y="14" width="24" height="24">
<path d="M15.5 14H23C23.8276 14 24.5 14.672 24.5 15.5V23C24.5 23.828 23.8276 24.5 23 24.5H15.5C14.6724 24.5 14 23.828 14 23V15.5C14 14.672 14.6724 14 15.5 14Z" fill="#6B6C7E"/>
<path d="M15.5 27.5H23C23.8276 27.5 24.5 28.172 24.5 29V36.5C24.5 37.328 23.8276 38 23 38H15.5C14.6724 38 14 37.328 14 36.5V29C14 28.172 14.6724 27.5 15.5 27.5Z" fill="#6B6C7E"/>
<path d="M36.5 14H29C28.1724 14 27.5 14.672 27.5 15.5V23C27.5 23.828 28.1724 24.5 29 24.5H36.5C37.3276 24.5 38 23.828 38 23V15.5C38 14.672 37.3276 14 36.5 14Z" fill="#6B6C7E"/>
<path d="M29 27.5H36.5C37.3276 27.5 38 28.172 38 29V36.5C38 37.328 37.3276 38 36.5 38H29C28.1724 38 27.5 37.328 27.5 36.5V29C27.5 28.172 28.1724 27.5 29 27.5Z" fill="#6B6C7E"/>
</mask>
<g mask="url(#mask0_2038_35323)">
<rect x="14" y="14" width="24" height="24" fill="white"/>
</g>
</svg>
