<svg width="52" height="52" viewBox="0 0 52 52" fill="none" xmlns="http://www.w3.org/2000/svg">
<mask id="mask0_2038_35329" style="mask-type:alpha" maskUnits="userSpaceOnUse" x="14" y="14" width="24" height="24">
<path d="M15.502 14H18.502C19.3296 14 20.002 14.672 20.002 15.5C20.002 16.328 19.3296 17 18.502 17H15.502C14.6743 17 14.002 16.328 14.002 15.5C14.002 14.672 14.6743 14 15.502 14Z" fill="#6B6C7E"/>
<path d="M15.502 24.5H18.502C19.3296 24.5 20.002 25.172 20.002 26C20.002 26.828 19.3296 27.5 18.502 27.5H15.502C14.6743 27.5 14.002 26.828 14.002 26C14.002 25.172 14.6743 24.5 15.502 24.5Z" fill="#6B6C7E"/>
<path d="M18.502 35H15.502C14.6743 35 14.002 35.672 14.002 36.5C14.002 37.328 14.6743 38 15.502 38H18.502C19.3296 38 20.002 37.328 20.002 36.5C20.002 35.672 19.3296 35 18.502 35Z" fill="#6B6C7E"/>
<path d="M24.5005 27.5H36.5005C37.3252 27.5 38.0005 26.825 38.0005 26C38.0005 25.175 37.3252 24.5 36.5005 24.5H24.5005C23.6758 24.5 23.0005 25.175 23.0005 26C23.0005 26.825 23.6758 27.5 24.5005 27.5Z" fill="#6B6C7E"/>
<path d="M36.5005 17H24.5005C23.6758 17 23.0005 16.325 23.0005 15.5C23.0005 14.675 23.6758 14 24.5005 14H36.5005C37.3252 14 38.0005 14.675 38.0005 15.5C38.0005 16.325 37.3252 17 36.5005 17Z" fill="#6B6C7E"/>
<path d="M24.5005 38H36.5005C37.3252 38 38.0005 37.325 38.0005 36.5C38.0005 35.675 37.3252 35 36.5005 35H24.5005C23.6758 35 23.0005 35.675 23.0005 36.5C23.0005 37.325 23.6758 38 24.5005 38Z" fill="#6B6C7E"/>
</mask>
<g mask="url(#mask0_2038_35329)">
<rect x="14" y="14" width="24" height="24" fill="#6B6C7E"/>
</g>
</svg>
